
<svg width="24" height="24" viewBox="0 0 24 24" fill="none" xmlns="http://www.w3.org/2000/svg">
<path d="M11.2959 15.7041C11.4008 15.8086 11.484 15.9328 11.5408 16.0695C11.5976 16.2063 11.6268 16.3529 11.6268 16.5009C11.6268 16.649 11.5976 16.7956 11.5408 16.9324C11.484 17.0691 11.4008 17.1933 11.2959 17.2978L8.29594 20.2978C8.19143 20.4027 8.06723 20.4859 7.93049 20.5427C7.79374 20.5995 7.64713 20.6287 7.49907 20.6287C7.351 20.6287 7.20439 20.5995 7.06765 20.5427C6.9309 20.4859 6.80671 20.4027 6.70219 20.2978L3.70219 17.2978C3.59755 17.1932 3.51453 17.0689 3.4579 16.9322C3.40127 16.7955 3.37212 16.6489 3.37212 16.5009C3.37212 16.3529 3.40127 16.2064 3.4579 16.0697C3.51453 15.9329 3.59755 15.8087 3.70219 15.7041C3.80684 15.5994 3.93107 15.5164 4.0678 15.4598C4.20453 15.4031 4.35107 15.374 4.49907 15.374C4.64706 15.374 4.79361 15.4031 4.93033 15.4598C5.06706 15.5164 5.1913 15.5994 5.29594 15.7041L6.37501 16.7812V4.49999C6.37501 4.20163 6.49353 3.91548 6.70451 3.7045C6.91549 3.49352 7.20164 3.37499 7.50001 3.37499C7.79837 3.37499 8.08452 3.49352 8.2955 3.7045C8.50648 3.91548 8.62501 4.20163 8.62501 4.49999V16.7812L9.70407 15.7012C9.80873 15.5968 9.93296 15.5141 10.0696 15.4577C10.2063 15.4013 10.3527 15.3724 10.5006 15.3727C10.6484 15.373 10.7948 15.4024 10.9312 15.4592C11.0677 15.5161 11.1916 15.5993 11.2959 15.7041ZM20.2959 6.70406L17.2959 3.70406C17.1914 3.59918 17.0672 3.51596 16.9305 3.45918C16.7937 3.4024 16.6471 3.37317 16.4991 3.37317C16.351 3.37317 16.2044 3.4024 16.0676 3.45918C15.9309 3.51596 15.8067 3.59918 15.7022 3.70406L12.7022 6.70406C12.4908 6.9154 12.3721 7.20205 12.3721 7.50093C12.3721 7.79982 12.4908 8.08646 12.7022 8.29781C12.9135 8.50915 13.2002 8.62788 13.4991 8.62788C13.798 8.62788 14.0846 8.50915 14.2959 8.29781L15.375 7.21874V19.5C15.375 19.7984 15.4935 20.0845 15.7045 20.2955C15.9155 20.5065 16.2016 20.625 16.5 20.625C16.7984 20.625 17.0845 20.5065 17.2955 20.2955C17.5065 20.0845 17.625 19.7984 17.625 19.5V7.21874L18.7041 8.29874C18.9154 8.51009 19.2021 8.62882 19.5009 8.62882C19.7998 8.62882 20.0865 8.51009 20.2978 8.29874C20.5092 8.0874 20.6279 7.80075 20.6279 7.50187C20.6279 7.20298 20.5092 6.91634 20.2978 6.70499L20.2959 6.70406Z" fill="#5E5E5E"/>
</svg>
