<svg width="50" height="50" viewBox="0 0 50 50" fill="none" xmlns="http://www.w3.org/2000/svg">
<rect width="50" height="50" rx="25" fill="#0083F0"/>
<path d="M34.4613 11.6584C34.3714 11.5884 34.2668 11.5398 34.1554 11.5163C34.0439 11.4927 33.9286 11.4948 33.8181 11.5225L28.0872 12.955L22.3356 10.0787C22.1754 9.99882 21.9918 9.97886 21.8181 10.0225L15.8181 11.5225C15.6559 11.5631 15.5118 11.6567 15.4089 11.7885C15.306 11.9203 15.25 12.0828 15.25 12.25V25.75C15.25 25.864 15.276 25.9764 15.326 26.0788C15.376 26.1813 15.4486 26.2709 15.5385 26.3411C15.6283 26.4112 15.7329 26.4599 15.8444 26.4836C15.9559 26.5072 16.0713 26.5051 16.1819 26.4775L21.9128 25.045L27.6644 27.9212C27.7688 27.9727 27.8836 27.9997 28 28C28.0613 28 28.1224 27.9924 28.1819 27.9775L34.1819 26.4775C34.3441 26.4369 34.4882 26.3433 34.5911 26.2115C34.694 26.0797 34.75 25.9172 34.75 25.75V12.25C34.75 12.1359 34.724 12.0234 34.674 11.9208C34.624 11.8183 34.5512 11.7286 34.4613 11.6584ZM22 23.5C21.9387 23.5 21.8776 23.5076 21.8181 23.5225L16.75 24.7891V12.8359L21.9128 11.545L22 11.5881V23.5ZM33.25 25.1641L28.0872 26.455L28 26.4119V14.5C28.0613 14.5003 28.1224 14.493 28.1819 14.4784L33.25 13.2109V25.1641Z" fill="white"/>
<path d="M19.6465 33.041V37.5137H18.5527V33.041H19.6465ZM12.4297 36.8105C14.6221 36.3809 15.6475 35.458 15.7744 34.2812H12.8984V33.4023H16.9805C16.9756 35.7705 15.5449 37.1133 12.8105 37.6895L12.4297 36.8105ZM13.7871 38.7246V37.875H19.6465V40.1797H14.9004V40.9316H19.9102V41.7812H13.8066V39.3887H18.5527V38.7246H13.7871ZM27.8984 33.041V35.6289H29.1289V36.5273H27.8984V39.4961H26.8145V33.041H27.8984ZM21.0332 35.8535C21.0283 34.5498 22.0732 33.6318 23.416 33.627C24.7588 33.6318 25.7891 34.5498 25.7988 35.8535C25.7891 37.1377 24.7588 38.0703 23.416 38.0703C22.0732 38.0703 21.0283 37.1377 21.0332 35.8535ZM22.0977 35.8535C22.0928 36.6152 22.6787 37.1182 23.416 37.1133C24.1631 37.1182 24.7295 36.6152 24.7344 35.8535C24.7295 35.0723 24.1631 34.5742 23.416 34.5742C22.6787 34.5742 22.0928 35.0723 22.0977 35.8535ZM22.2441 41.6934V38.8223H23.3281V40.8145H28.25V41.6934H22.2441ZM37.1562 33.041V41.8691H36.1113V37.4062H35.1348V41.4199H34.1191V33.207H35.1348V36.5176H36.1113V33.041H37.1562ZM29.959 39.6719V34.0566H31.0527V38.7148C31.8145 38.7002 32.6445 38.6318 33.5723 38.4512L33.6797 39.3984C32.4883 39.6084 31.4775 39.6719 30.5449 39.6719H29.959Z" fill="white"/>
</svg>

