
<svg width="24" height="24" viewBox="0 0 24 24" fill="none" xmlns="http://www.w3.org/2000/svg">
<path d="M19.5459 17.9541C19.7573 18.1654 19.876 18.452 19.876 18.7509C19.876 19.0498 19.7573 19.3365 19.5459 19.5478C19.3346 19.7592 19.048 19.8779 18.7491 19.8779C18.4502 19.8779 18.1635 19.7592 17.9522 19.5478L12 13.5937L6.04594 19.5459C5.8346 19.7573 5.54795 19.876 5.24907 19.876C4.95018 19.876 4.66354 19.7573 4.45219 19.5459C4.24085 19.3346 4.12212 19.0479 4.12212 18.7491C4.12212 18.4502 4.24085 18.1635 4.45219 17.9522L10.4063 12L4.45407 6.04593C4.24272 5.83459 4.12399 5.54795 4.12399 5.24906C4.12399 4.95017 4.24272 4.66353 4.45407 4.45218C4.66541 4.24084 4.95206 4.12211 5.25094 4.12211C5.54983 4.12211 5.83647 4.24084 6.04782 4.45218L12 10.4062L17.9541 4.45125C18.1654 4.2399 18.4521 4.12117 18.7509 4.12117C19.0498 4.12117 19.3365 4.2399 19.5478 4.45125C19.7592 4.66259 19.8779 4.94924 19.8779 5.24812C19.8779 5.54701 19.7592 5.83365 19.5478 6.045L13.5938 12L19.5459 17.9541Z" fill="#5E5E5E"/>
</svg>
